<?xml version="1.0" encoding="iso-8859-1"?>
<!-- Generator: Adobe Illustrator 19.0.0, SVG Export Plug-In . SVG Version: 6.00 Build 0)  -->
<svg version="1.1" id="Layer_1" xmlns="http://www.w3.org/2000/svg" xmlns:xlink="http://www.w3.org/1999/xlink" x="0px" y="0px"
	 viewBox="0 0 512 512" style="enable-background:new 0 0 512 512;" xml:space="preserve">
<g>
	<g>
		<path d="M363.376,245.312l-95.44-96.56l-22.768,22.496l84.192,85.184l-85.168,84.192l22.496,22.768l96.56-95.44
			C369.536,261.744,369.584,251.616,363.376,245.312z"/>
	</g>
</g>
<g>
	<g>
		<path d="M267.376,244.736l-95.44-96.576l-22.768,22.496l84.192,85.184l-85.184,84.176l22.512,22.784l96.56-95.424
			c3.008-2.992,4.72-7.04,4.752-11.296C272.032,251.824,270.352,247.76,267.376,244.736z"/>
	</g>
</g>
<g>
	<g>
		<path d="M480,0H32C14.352,0,0,14.352,0,32v448c0,17.648,14.352,32,32,32h448c17.648,0,32-14.352,32-32V32
			C512,14.352,497.648,0,480,0z M480,480l-448,0.016V32h448V480z"/>
	</g>
</g>
<g>
</g>
<g>
</g>
<g>
</g>
<g>
</g>
<g>
</g>
<g>
</g>
<g>
</g>
<g>
</g>
<g>
</g>
<g>
</g>
<g>
</g>
<g>
</g>
<g>
</g>
<g>
</g>
<g>
</g>
</svg>
