<?xml version="1.0"?>
<svg xmlns="http://www.w3.org/2000/svg" id="Layer_3" data-name="Layer 3" viewBox="0 0 64 64" width="512" height="512"><path d="M45,38a3,3,0,0,0-3,3,3,3,0,0,0,0,6,3,3,0,0,0,6,0,3,3,0,0,0,0-6A3,3,0,0,0,45,38Zm0,2a1,1,0,1,1-1,1A1,1,0,0,1,45,40Zm-4,4a1,1,0,1,1,1,1A1,1,0,0,1,41,44Zm4,4a1,1,0,1,1,1-1A1,1,0,0,1,45,48Zm4-4a1,1,0,1,1-1-1A1,1,0,0,1,49,44Z"/><path d="M13,42v4a1,1,0,0,0,1,1h2v2a1,1,0,0,0,1,1h4a1,1,0,0,0,1-1V47h2a1,1,0,0,0,1-1V42a1,1,0,0,0-1-1H22V39a1,1,0,0,0-1-1H17a1,1,0,0,0-1,1v2H14A1,1,0,0,0,13,42Zm2,1h2a1,1,0,0,0,1-1V40h2v2a1,1,0,0,0,1,1h2v2H21a1,1,0,0,0-1,1v2H18V46a1,1,0,0,0-1-1H15Z"/><path d="M62,1H2A1,1,0,0,0,1,2V40a1,1,0,0,0,1,1h8.525a8.892,8.892,0,0,0,.675,7.471l-1.023,4.85A8.049,8.049,0,0,0,11.8,60.082,7.816,7.816,0,0,0,22.637,61.4l2.884-2.2a10.658,10.658,0,0,1,12.957,0l2.885,2.2A7.816,7.816,0,0,0,52.2,60.082a8.049,8.049,0,0,0,1.624-6.761L52.8,48.47A8.889,8.889,0,0,0,53.475,41H62a1,1,0,0,0,1-1V2A1,1,0,0,0,62,1ZM24,35H21V33h3Zm2,9a7,7,0,1,1-7-7A7.008,7.008,0,0,1,26,44ZM24.309,57.6l-2.884,2.2a5.816,5.816,0,0,1-8.071-.982,6.059,6.059,0,0,1-1.22-5.088l.678-3.216A8.99,8.99,0,1,0,24.644,37H28v3a1,1,0,0,0,1,1V55.368A12.794,12.794,0,0,0,24.309,57.6ZM34,39H30V37h4ZM31,55.042V41h2V55.042c-.332-.027-.666-.042-1-.042S31.332,55.015,31,55.042Zm19.646,3.78a5.815,5.815,0,0,1-8.07.982L39.69,57.6A12.782,12.782,0,0,0,35,55.368V41a1,1,0,0,0,1-1V37h3.356A8.99,8.99,0,1,0,51.188,50.518l.678,3.216A6.059,6.059,0,0,1,50.646,58.822ZM43,35H40V33h3Zm2,16a7,7,0,1,1,7-7A7.008,7.008,0,0,1,45,51ZM61,39H52.478A9,9,0,0,0,45,35V32a1,1,0,0,0-1-1H39a1,1,0,0,0-1,1v3H26V32a1,1,0,0,0-1-1H20a1,1,0,0,0-1,1v3a9,9,0,0,0-7.478,4H3V3H61Z"/><path d="M6,37h5V35H7V7H57V35H53v2h5a1,1,0,0,0,1-1V6a1,1,0,0,0-1-1H6A1,1,0,0,0,5,6V36A1,1,0,0,0,6,37Z"/><path d="M18,14H15a1,1,0,0,0-1,1V26h2V22h2a4,4,0,0,0,0-8Zm0,6H16V16h2a2,2,0,0,1,0,4Z"/><path d="M26,14H24V25a1,1,0,0,0,1,1h5V24H26Z"/><path d="M36,14a4,4,0,0,0-4,4v8h2V23h4v3h2V18A4,4,0,0,0,36,14Zm-2,7V18a2,2,0,0,1,4,0v3Z"/><path d="M48,18a2,2,0,0,1-4,0V14H42v4a4,4,0,0,0,3,3.858V26h2V21.858A4,4,0,0,0,50,18V14H48Z"/></svg>
