<?xml version="1.0" encoding="iso-8859-1"?>
<!-- Generator: Adobe Illustrator 19.0.0, SVG Export Plug-In . SVG Version: 6.00 Build 0)  -->
<svg version="1.1" id="Capa_1" xmlns="http://www.w3.org/2000/svg" xmlns:xlink="http://www.w3.org/1999/xlink" x="0px" y="0px"
	 viewBox="0 0 512 512" style="enable-background:new 0 0 512 512;" xml:space="preserve">
<g>
	<g>
		<path d="M293.542,248.928l-71.735-71.735c-3.906-3.904-10.238-3.904-14.143,0c-3.905,3.906-3.905,10.238,0,14.143L272.329,256
			L75.688,452.641l-51.546-51.545l138.024-138.025c3.905-3.906,3.905-10.238,0-14.143L24.142,110.904l51.546-51.545l76.976,76.977
			c3.906,3.904,10.238,3.904,14.143,0c3.905-3.906,3.905-10.238,0-14.143L82.759,38.145c-3.905-3.904-10.237-3.904-14.142,0
			L2.929,103.833C1.054,105.709,0,108.252,0,110.904s1.054,5.195,2.929,7.071L140.953,256L2.929,394.025
			C1.054,395.901,0,398.444,0,401.096s1.054,5.195,2.929,7.071l65.688,65.687c1.953,1.952,4.512,2.929,7.071,2.929
			c2.559,0,5.119-0.977,7.071-2.929l210.783-210.783C297.447,259.165,297.447,252.833,293.542,248.928z"/>
	</g>
</g>
<g>
	<g>
		<path d="M195.31,150.689c-1.86-1.859-4.44-2.92-7.07-2.92c-2.64,0-5.21,1.061-7.07,2.92c-1.87,1.87-2.93,4.44-2.93,7.08
			c0,2.63,1.06,5.21,2.93,7.07c1.86,1.861,4.44,2.93,7.07,2.93s5.21-1.069,7.07-2.93c1.86-1.86,2.93-4.44,2.93-7.07
			C198.24,155.129,197.17,152.559,195.31,150.689z"/>
	</g>
</g>
<g>
	<g>
		<path d="M350.396,356.691c-3.916-3.894-10.247-3.877-14.142,0.037l-0.092,0.093c-3.895,3.916-3.878,10.247,0.038,14.143
			c1.951,1.94,4.501,2.91,7.052,2.91c2.568,0,5.136-0.983,7.09-2.947l0.092-0.093C354.329,366.918,354.312,360.587,350.396,356.691z
			"/>
	</g>
</g>
<g>
	<g>
		<path d="M509.071,248.929L298.288,38.145c-3.905-3.904-10.237-3.904-14.143,0l-65.688,65.688
			c-1.875,1.876-2.929,4.419-2.929,7.071c0,2.652,1.054,5.195,2.929,7.071L356.482,256L218.458,394.024
			c-1.875,1.876-2.929,4.419-2.929,7.071c0,2.652,1.054,5.195,2.929,7.071l65.688,65.688c1.953,1.952,4.512,2.929,7.071,2.929
			s5.119-0.977,7.071-2.929l210.783-210.783C512.977,259.166,512.977,252.834,509.071,248.929z M291.217,452.64l-11.295-11.295
			l47.4-47.4c3.905-3.905,3.905-10.237,0-14.143c-3.905-3.904-10.237-3.904-14.143,0l-47.4,47.4l-26.108-26.108L377.695,263.07
			c3.905-3.905,3.905-10.237,0-14.143L239.671,110.904l51.546-51.545L487.858,256L291.217,452.64z"/>
	</g>
</g>
<g>
</g>
<g>
</g>
<g>
</g>
<g>
</g>
<g>
</g>
<g>
</g>
<g>
</g>
<g>
</g>
<g>
</g>
<g>
</g>
<g>
</g>
<g>
</g>
<g>
</g>
<g>
</g>
<g>
</g>
</svg>
