<?xml version="1.0" encoding="iso-8859-1"?>
<!-- Generator: Adobe Illustrator 19.0.0, SVG Export Plug-In . SVG Version: 6.00 Build 0)  -->
<svg version="1.1" id="Capa_1" xmlns="http://www.w3.org/2000/svg" xmlns:xlink="http://www.w3.org/1999/xlink" x="0px" y="0px"
	 viewBox="0 0 512 512" style="enable-background:new 0 0 512 512;" xml:space="preserve">
<g>
	<g>
		<path d="M178.771,248.928l-107.8-107.8c-2.86-2.86-7.161-3.714-10.898-2.167c-3.736,1.548-6.173,5.195-6.173,9.239v75.467
			c0,5.523,4.478,10,10,10c5.522,0,10-4.477,10-10v-51.324L157.557,256L73.9,339.657v-42.989c0-5.522-4.478-10-10-10
			c-5.522,0-10,4.478-10,10V363.8c0,4.045,2.437,7.691,6.173,9.239c1.237,0.512,2.537,0.761,3.825,0.761
			c2.602,0,5.16-1.016,7.073-2.929l107.8-107.8C182.676,259.165,182.676,252.833,178.771,248.928z"/>
	</g>
</g>
<g>
	<g>
		<path d="M63.9,250c-5.522,0-10,4.477-10,10v0.625c0,5.522,4.478,10,10,10c5.522,0,10-4.477,10-10V260
			C73.9,254.477,69.422,250,63.9,250z"/>
	</g>
</g>
<g>
	<g>
		<path d="M455.171,248.929l-246-246c-3.906-3.905-10.236-3.905-14.143,0l-76.663,76.663c-1.875,1.875-2.929,4.419-2.929,7.071
			c0,2.652,1.054,5.196,2.929,7.071L280.632,256L118.366,418.266c-1.875,1.876-2.929,4.419-2.929,7.071
			c0,2.652,1.054,5.195,2.929,7.071l76.663,76.663c1.953,1.952,4.512,2.929,7.071,2.929c2.559,0,5.118-0.977,7.071-2.929l246-246
			C459.077,259.166,459.077,252.834,455.171,248.929z M422.616,267.342l-50.674-50.673c-3.906-3.905-10.236-3.905-14.143,0
			c-3.905,3.905-3.905,10.237,0,14.142l50.674,50.673L202.1,487.858l-62.521-62.521l162.267-162.266
			c1.875-1.876,2.929-4.419,2.929-7.071c0-2.652-1.054-5.196-2.929-7.071L139.58,86.663l62.52-62.521L433.958,256L422.616,267.342z"
			/>
	</g>
</g>
<g>
	<g>
		<path d="M348.96,193.687l-0.092-0.092c-3.896-3.917-10.228-3.933-14.143-0.038c-3.915,3.895-3.932,10.226-0.037,14.142
			l0.092,0.092c1.954,1.965,4.522,2.948,7.09,2.948c2.55,0,5.101-0.97,7.053-2.91C352.838,203.934,352.855,197.603,348.96,193.687z"
			/>
	</g>
</g>
<g>
</g>
<g>
</g>
<g>
</g>
<g>
</g>
<g>
</g>
<g>
</g>
<g>
</g>
<g>
</g>
<g>
</g>
<g>
</g>
<g>
</g>
<g>
</g>
<g>
</g>
<g>
</g>
<g>
</g>
</svg>
